<?xml version="1.0" encoding="UTF-8"?>
<svg width="256px" height="256px" viewBox="0 0 256 256" version="1.1" xmlns="http://www.w3.org/2000/svg" xmlns:xlink="http://www.w3.org/1999/xlink">
    <!-- Programming Languages Logos -->
    <title>typescript</title>
    <desc>Created with Sketch.</desc>
    <g id="Page-1" stroke="none" stroke-width="1" fill="none" fill-rule="evenodd">
        <g id="typescript">
            <polygon id="Path" fill="#007ACC" transform="translate(128.000000, 128.000000) scale(-1, 1) rotate(-180.000000) translate(-128.000000, -128.000000) " points="0 128 0 0 128 0 256 0 256 128 256 256 128 256 0 256"></polygon>
            <path d="M146.658133,223.436862 L146.739402,212.953053 L130.079085,212.953053 L113.418768,212.953053 L113.418768,165.61337 L113.418768,118.273688 L101.634641,118.273688 L89.850514,118.273688 L89.850514,165.61337 L89.850514,212.953053 L73.1901965,212.953053 L56.529879,212.953053 L56.529879,223.233688 C56.529879,228.922576 56.6517838,233.676862 56.8143235,233.798767 C56.9362283,233.961307 77.2130536,234.042576 101.79718,234.001942 L146.536228,233.880037 L146.658133,223.436862 Z" id="Path" fill="#FFFFFF" transform="translate(101.634641, 176.142993) rotate(-180.000000) translate(-101.634641, -176.142993) "></path>
            <path d="M206.566631,234.272144 C213.068219,232.646747 218.025679,229.761667 222.57679,225.048017 C224.933616,222.528652 228.428219,217.936906 228.712663,216.839763 C228.793933,216.514683 217.659965,209.037858 210.914568,204.852461 C210.670758,204.689921 209.69552,205.746429 208.598377,207.371826 C205.306949,212.166747 201.852981,214.239128 196.570441,214.604842 C188.809171,215.133096 183.811076,211.069604 183.851711,204.283572 C183.851711,202.292461 184.136155,201.114048 184.948854,199.488652 C186.65552,195.953413 189.825044,193.840398 199.7806,189.533096 C218.106949,181.649921 225.949489,176.448652 230.825679,169.053096 C236.270758,160.804207 237.489806,147.638493 233.792028,137.845477 C229.728536,127.199128 219.651076,119.966112 205.469489,117.568652 C201.080917,116.796588 190.678377,116.918493 185.964727,117.771826 C175.684092,119.600398 165.931711,124.679763 159.917743,131.34389 C157.560917,133.944525 152.969171,140.730556 153.253616,141.218175 C153.37552,141.380715 154.432028,142.030874 155.610441,142.721667 C156.748219,143.371826 161.05552,145.850556 165.119012,148.207382 L172.473933,152.474048 L174.01806,150.198493 C176.171711,146.907064 180.885362,142.396588 183.729806,140.893096 C191.897425,136.585794 203.112663,137.195318 208.639012,142.152779 C210.995838,144.306429 211.971076,146.54135 211.971076,149.832779 C211.971076,152.799128 211.605362,154.099445 210.061235,156.334366 C208.070123,159.17881 204.006631,161.576271 192.466314,166.574366 C179.259965,172.263255 173.571076,175.798493 168.369806,181.406112 C165.362822,184.656906 162.518377,189.858175 161.339965,194.206112 C160.364727,197.82262 160.120917,206.884207 160.892981,210.54135 C163.61552,223.300715 173.245996,232.199763 187.143139,234.841033 C191.653616,235.694366 202.137425,235.369286 206.566631,234.272144 Z" id="Path" fill="#FFFFFF" transform="translate(194.578508, 176.190239) scale(-1, 1) rotate(-180.000000) translate(-194.578508, -176.190239) "></path>
        </g>
    </g>
</svg>
