<?xml version="1.0" encoding="UTF-8"?>
<svg width="256px" height="255px" viewBox="0 0 256 255" version="1.1" xmlns="http://www.w3.org/2000/svg" xmlns:xlink="http://www.w3.org/1999/xlink">
    <!-- Generator: Sketch 52 (66869) - http://www.bohemiancoding.com/sketch -->
    <title>swift</title>
    <desc>Created with Sketch.</desc>
    <defs>
        <linearGradient x1="59.404026%" y1="-3.56828125%" x2="40.4896887%" y2="103.580664%" id="linearGradient-1">
            <stop stop-color="#FAAE42" offset="0%"></stop>
            <stop stop-color="#EF3E31" offset="100%"></stop>
        </linearGradient>
        <linearGradient x1="59.8404246%" y1="1.97422802%" x2="43.6223274%" y2="97.7939002%" id="linearGradient-2">
            <stop stop-color="#E39F3A" offset="0%"></stop>
            <stop stop-color="#D33929" offset="100%"></stop>
        </linearGradient>
    </defs>
    <g id="Page-1" stroke="none" stroke-width="1" fill="none" fill-rule="evenodd">
        <g id="swift">
            <path d="M56.6785992,0 C58.1727626,0 195.436576,0 197.926848,0 C204.8,0 211.47393,1.09570312 217.948638,3.38671875 C227.312062,6.7734375 235.778988,12.75 242.154086,20.5195312 C248.628794,28.2890625 252.912062,37.8515625 254.406226,47.8125 C255.003891,51.4980469 255.103502,55.1835938 255.103502,58.8691406 C255.103502,62.2558594 255.103502,181.587891 255.103502,186.966797 C255.103502,190.154297 255.103502,193.441406 255.103502,196.628906 C255.103502,201.011719 254.90428,205.494141 254.007782,209.777344 C252.015564,219.638672 247.333852,228.902344 240.560311,236.373047 C233.886381,243.84375 225.120623,249.421875 215.657588,252.410156 C209.880156,254.203125 203.903502,255 197.827237,255 C195.137743,255 56.2801556,255 54.1883268,254.900391 C44.0280156,254.402344 33.9673152,251.115234 25.5003891,245.4375 C17.2326848,239.859375 10.459144,232.089844 6.07626459,223.125 C2.29105058,215.455078 0.39844358,206.888672 0.39844358,198.322266 C0.39844358,196.330078 0.39844358,58.6699219 0.39844358,56.6777344 C0.19922179,48.2109375 1.9922179,39.84375 5.67782101,32.2734375 C9.96108949,23.3085937 16.6350195,15.4394531 24.9027237,9.86132812 C33.3696498,4.08398437 43.3307393,0.697265625 53.4910506,0.19921875 C54.4871595,0 55.5828794,0 56.6785992,0 Z" id="Path" fill="url(#linearGradient-1)"></path>
            <path d="M215.159533,208.582031 C214.263035,207.1875 213.266926,205.792969 212.171206,204.498047 C209.680934,201.509766 206.792218,198.919922 203.604669,196.728516 C199.620233,194.039062 194.938521,192.345703 190.157198,192.146484 C186.770428,191.947266 183.383658,192.544922 180.196109,193.740234 C177.00856,194.835938 173.920623,196.429688 170.932296,198.023438 C167.445914,199.816406 163.959533,201.609375 160.27393,203.103516 C155.891051,204.896484 151.308949,206.291016 146.627237,207.287109 C140.750195,208.382812 134.773541,208.78125 128.896498,208.681641 C118.238132,208.482422 107.579767,206.888672 97.4194553,203.900391 C88.4544747,201.210938 79.8879377,197.525391 71.8194553,192.84375 C64.7470817,188.759766 58.1727626,184.078125 51.9968872,178.798828 C46.9167315,174.416016 42.2350195,169.734375 37.8521401,164.753906 C34.8638132,161.267578 31.9750973,157.582031 29.2856031,153.796875 C28.1898833,152.302734 27.1937743,150.708984 26.2972763,149.115234 C26.2972763,149.115234 26.2972763,149.115234 26.2972763,149.115234 C26.2972763,149.115234 26.2972763,149.115234 26.2972763,149.115234 L0,120.726562 L0,56.4785156 C0,25.3007812 25.2015564,0 56.3797665,0 L106.683268,0 L143.937743,37.8515625 C143.937743,37.8515625 143.937743,37.8515625 143.937743,37.8515625 C228.009339,95.0273438 200.815564,158.080078 200.815564,158.080078 C200.815564,158.080078 224.722179,184.974609 215.159533,208.582031 Z" id="Path" fill="url(#linearGradient-2)"></path>
            <path d="M144.136965,37.8515625 C228.20856,95.0273438 201.014786,158.080078 201.014786,158.080078 C201.014786,158.080078 224.921401,185.074219 215.259144,208.681641 C215.259144,208.681641 205.397665,192.146484 188.862257,192.146484 C172.924514,192.146484 163.561089,208.681641 131.486381,208.681641 C60.0653696,208.681641 26.2972763,149.015625 26.2972763,149.015625 C90.6459144,191.349609 134.574319,161.367188 134.574319,161.367188 C105.587549,144.533203 43.9284047,64.0488281 43.9284047,64.0488281 C97.618677,109.769531 120.828016,121.822266 120.828016,121.822266 C106.982101,110.367188 68.1338521,54.3867187 68.1338521,54.3867187 C99.2124514,85.8632812 160.971206,129.791016 160.971206,129.791016 C178.502724,81.1816406 144.136965,37.8515625 144.136965,37.8515625 Z" id="Path" fill="#FFFFFF"></path>
        </g>
    </g>
</svg>