<?xml version="1.0" encoding="UTF-8"?>
<svg width="188px" height="256px" viewBox="0 0 188 256" version="1.1" xmlns="http://www.w3.org/2000/svg" xmlns:xlink="http://www.w3.org/1999/xlink">
    <!-- Generator: Sketch 52 (66869) - http://www.bohemiancoding.com/sketch -->
    <title>gopher</title>
    <desc>Created with Sketch.</desc>
    <g id="Page-1" stroke="none" stroke-width="1" fill="none" fill-rule="evenodd">
        <g id="gopher">
            <path d="M2.70661478,138.420216 C3.07237354,145.967745 10.6070039,142.45045 13.9719844,140.105586 C17.1906615,137.833999 18.1416342,139.739201 18.4342412,135.342582 C18.6536965,132.411503 18.9463035,129.553701 18.8,126.622621 C13.8988327,126.18296 8.63190661,127.355391 4.60856031,130.286471 C2.48715953,131.75201 -1.31673152,136.588291 2.70661478,138.420216" id="Path" fill="#F6D2A2"></path>
            <path d="M152.887159,231.188873 C158.666148,234.779444 169.273152,245.624438 160.568093,250.90038 C152.228794,258.521186 147.547082,242.473527 140.231907,240.275218 C143.377432,235.951876 147.327626,231.994919 152.887159,231.188873 Z" id="Path" fill="#F6D2A2"></path>
            <path d="M49.4505837,243.426128 C42.6474709,244.452006 38.8435798,250.607272 33.1377432,253.758182 C27.7976654,256.909093 25.7494163,252.732305 25.3105058,251.852981 C24.5058366,251.486596 24.5789883,252.219366 23.2622568,250.90038 C18.2879377,243.059744 28.3828793,237.344139 33.6498055,233.460459 C40.9649806,231.994919 45.5735408,238.370016 49.4505837,243.426128 Z" id="Path" fill="#F6D2A2"></path>
            <path d="M185.000778,137.467615 C184.63502,145.015144 177.100389,141.497849 173.735408,139.152985 C170.516731,136.881399 169.565758,138.7866 169.273152,134.389981 C169.053696,131.458903 168.76109,128.601101 168.907393,125.670021 C173.80856,125.230359 179.075487,126.402791 183.098833,129.33387 C185.147082,130.799409 189.024125,135.635691 185.000778,137.467615" id="Path" fill="#F6D2A2"></path>
            <path d="M165.03035,45.4317277 C191.145525,36.1988282 170.736187,0.366384901 147.985992,16.1942126 C133.063035,3.37074109 112.507393,1.02587772 90.9276262,1.02587772 C69.7867704,2.71124826 49.6700389,6.59492821 35.6249027,18.9054609 C12.9478599,4.25006485 -7.97354082,39.4230154 18.6536965,48.28953 C11.1922179,77.307214 19.677821,106.911114 18.507393,136.441737 C17.4101167,162.968004 10.4607004,198.507339 25.1642024,222.322358 C37.6731518,242.693358 64.5929961,249.94778 86.7579764,250.753826 C115.067704,251.779704 149.375875,244.818391 163.128405,217.339523 C176.29572,191.179641 172.638132,158.571385 170.955642,130.359748 C169.273152,101.855002 172.418677,72.9105953 165.03035,45.4317277 Z" id="Path" fill="#69D7E2"></path>
            <path d="M186.975875,132.997719 C186.244358,131.458903 184.854475,129.700255 183.537743,128.747654 C180.172762,126.329514 175.856809,125.010528 171.394553,124.863974 C171.248249,120.320801 171.101945,115.337967 171.101945,109.036147 L171.101945,103.320542 C171.028793,85.2944051 170.809339,77.380491 169.785214,67.4880987 C168.980545,59.7207389 167.736965,52.5395948 165.981323,45.7981126 C171.906615,43.5265262 175.783658,39.7894003 177.319844,34.9531196 C178.782879,30.4832238 178.051362,25.4271121 175.564202,20.9572164 C173.003891,16.5605976 168.907393,13.2631334 164.152529,11.9441478 C159.031907,10.5518852 153.472374,11.5777629 148.132296,15.1683349 C143.377432,11.138101 137.891051,8.06046779 131.746304,5.71560446 C120.846692,1.68537054 108.19144,0.14655396 91.000778,0.14655396 L91.000778,0.879323763 L90.9276262,0.14655396 C72.566537,1.61209357 58.9603113,4.46989579 47.6949416,9.9656693 C43.1595331,12.1639787 39.1361868,14.80195 35.6249027,17.8795832 C30.2116731,14.5088421 24.5789883,13.7027953 19.385214,15.3148888 C14.5571984,16.7804284 10.3875487,20.2244465 7.90038914,24.6943423 C5.41322958,29.1642381 4.82801557,34.2936267 6.51050584,38.6902455 C8.19299608,43.0868643 12.0700389,46.5308824 17.8490273,48.6559148 C16.0202335,56.0568898 15.0692607,63.8975267 14.9229572,72.5442104 C14.7766537,80.9710632 15.1424125,87.7125451 16.459144,102.954157 C17.4101167,114.312089 17.7758755,119.514755 17.922179,125.816575 C12.9478599,125.596744 7.97354082,126.91573 4.24280156,129.626978 C2.92607004,130.579579 1.46303502,132.264949 0.804669258,133.877043 C-0.146303502,135.928798 0.219455253,137.760722 2.12140078,138.859878 C2.41400778,142.377173 4.38910506,143.989266 7.38832686,143.696158 C9.58287935,143.476327 12.2163424,142.303896 14.4840467,140.691802 C14.996109,140.325417 15.5081712,140.032309 16.0202335,139.812479 C16.2396887,139.739201 16.3859922,139.665924 16.6054475,139.592647 C16.6054475,139.592647 17.044358,139.446093 17.1906615,139.372816 C17.4101167,139.299539 17.629572,139.226262 17.7758755,139.079709 C17.629572,142.523727 17.336965,146.114299 16.6785992,154.32132 C15.9470817,163.55422 15.5813229,168.610331 15.4350194,174.252659 C14.7766537,195.209875 17.2638132,210.451487 24.7252918,222.542189 C27.0661478,226.352591 29.9190661,229.723333 33.2840467,232.800966 C32.6256809,233.240628 29.8459144,235.292384 28.9680934,235.951876 C25.8957198,238.296739 23.7743191,240.275218 22.5307393,242.473527 C20.9214008,245.331329 20.9214008,248.189132 22.7501945,251.193488 L22.8233463,251.266765 L22.896498,251.340042 C23.7011673,252.146088 24.1400778,252.36592 24.7252918,252.36592 L24.7984436,252.36592 L24.9447471,252.36592 C25.0178989,252.512474 25.0910506,252.585751 25.1642024,252.732305 C25.3836576,253.098689 25.6031128,253.391798 25.8225681,253.684905 C27.6513619,255.809938 30.2116731,256.322877 33.6498055,254.271121 C35.4785992,253.318521 36.7953308,252.219366 39.5750973,249.874503 C39.6482491,249.801226 39.6482491,249.801226 39.7214008,249.727949 C44.1836576,245.917545 46.3782101,244.525283 49.6700389,244.012344 L50.8404669,243.792513 C51.2793775,244.012344 51.7182879,244.158898 52.2303502,244.378729 C62.6178989,248.555517 74.6879379,250.827103 86.90428,251.266765 C102.705058,251.852981 117.920623,249.874503 130.795331,245.184775 C134.233463,243.939067 137.45214,242.473527 140.524513,240.861434 C142.426459,241.594204 144.035798,243.13302 147.108171,246.723592 C147.254475,246.870146 147.254475,246.870146 147.327626,247.0167 C147.47393,247.163254 147.47393,247.236531 147.547082,247.309808 C147.693385,247.529639 147.912841,247.676193 148.059144,247.896024 C150.473152,250.753826 152.082491,252.146088 153.911284,252.952135 C156.325291,253.978013 158.666148,253.465075 161.080156,251.266765 C165.322958,248.628794 165.615564,244.525283 162.835798,239.835556 C160.8607,236.538092 157.422568,233.094074 154.203891,230.895765 C158.007782,227.158638 161.299611,222.688743 163.859922,217.632631 C170.882491,203.563451 173.589105,187.149408 173.442802,166.045637 C173.36965,158.571385 173.077042,152.049734 172.272374,139.592647 L172.272374,139.226262 C172.638132,139.372816 173.003891,139.592647 173.36965,139.885755 C175.637354,141.424572 178.270817,142.67028 180.46537,142.890111 C183.464592,143.183219 185.439689,141.571126 185.732296,138.053831 C187.56109,136.881399 187.926848,135.049474 186.975875,132.997719 Z M163.713619,13.4829644 C168.102724,14.655396 171.906615,17.7330292 174.247471,21.8365401 C176.588327,25.940051 177.246692,30.5565007 175.929961,34.6600116 C174.540078,38.9833535 171.028793,42.4273715 165.542412,44.479127 C164.445136,40.52217 163.128405,36.6384901 161.66537,32.9013641 C163.786771,31.0694396 164.810895,28.7978532 163.128405,25.5736661 C161.445914,22.349479 158.519844,21.9830941 155.520623,22.9356948 C153.618677,20.4442775 151.497276,18.245968 149.302724,16.1942126 C154.13074,13.1165795 159.105058,12.2372557 163.713619,13.4829644 Z M7.75408563,38.2505837 C6.21789883,34.2936267 6.72996109,29.6039 9.07081714,25.5003891 C11.4116731,21.3968782 15.2155642,18.1726911 19.7509727,16.8537054 C24.4326848,15.4614428 29.4801557,16.1209357 34.4544747,19.0520149 C31.6015564,21.6167091 29.0412451,24.5477884 26.8466926,27.7719755 C23.0428016,25.793497 19.1657588,25.4271121 16.9712062,29.4573461 C14.703502,33.7806879 17.336965,36.4919361 21.0677042,38.5436915 C20.555642,39.7894003 20.0435798,41.1083859 19.6046692,42.4273715 C19.092607,44.0394651 18.5805447,45.7248356 18.1416342,47.4102062 C12.8015564,45.3584508 9.2902724,42.2075406 7.75408563,38.2505837 Z M16.6054475,138.127108 C16.5322958,138.127108 16.0933852,138.273662 16.0933852,138.346939 C15.87393,138.420216 15.6544747,138.493492 15.4350194,138.640046 C14.8498055,138.859878 14.2645914,139.226262 13.6793775,139.665924 C11.6311284,141.131464 9.1439689,142.230618 7.24202335,142.377173 C5.04747082,142.597004 3.80389105,141.644403 3.5844358,139.006432 C5.12062257,138.493492 5.77898833,138.127108 6.36420233,137.247784 L5.19377432,136.36846 C4.75486381,136.954676 4.31595331,137.174507 2.99922179,137.614169 C2.92607004,137.614169 2.92607004,137.614169 2.85291829,137.687446 C1.68249027,137.027953 1.46303502,136.002075 2.12140078,134.536536 C2.70661478,133.21755 4.0233463,131.678733 5.12062257,130.872686 C8.63190661,128.307992 13.3136187,127.062284 17.9953308,127.355391 C17.9953308,129.187316 18.0684825,131.01924 17.9953308,132.777888 C17.9953308,132.997719 17.9953308,133.144273 17.922179,133.364104 C17.8490273,134.389981 17.8490273,134.829644 17.7758755,135.342582 C17.5564202,137.467615 17.4101167,137.760722 16.6054475,138.127108 Z M38.6972762,248.70207 C38.6241245,248.775347 38.6241245,248.775347 38.5509727,248.848625 C35.844358,251.193488 34.5276264,252.146088 32.8451362,253.098689 C30.0653696,254.78406 28.1634242,254.417675 26.8466926,252.805582 C26.6272374,252.585751 26.4809339,252.292643 26.3346304,252.072812 C26.2614786,251.999535 26.1883269,251.852981 26.1151751,251.779704 C26.1151751,251.779704 26.1151751,251.779704 26.1151751,251.706427 C26.2614786,250.387441 26.7735408,249.43484 28.0902724,247.383085 C28.1634242,247.309808 28.1634242,247.309808 28.1634242,247.236531 C28.9680934,246.064099 29.3338522,245.404607 29.6996109,244.59856 L28.3828793,244.012344 C28.0902724,244.671837 27.7245136,245.258052 26.9929961,246.430485 C26.9198443,246.503762 26.9198443,246.503762 26.9198443,246.577038 C25.6031128,248.48224 25.0178989,249.654671 24.7252918,250.973657 L24.6521401,250.973657 C24.6521401,250.973657 24.6521401,250.973657 24.5789883,250.973657 L24.4326848,250.973657 C24.2863813,250.90038 24.066926,250.753826 23.7743191,250.460718 C20.9214008,245.917545 23.1891051,242.033866 29.6264592,237.197585 C30.4311284,236.611369 33.1377432,234.706167 33.8692607,234.119951 C34.0155642,234.119951 34.1618677,234.046674 34.3081712,233.973398 C38.2583658,237.344139 42.866926,240.275218 47.9875487,242.693358 C47.9875487,242.766635 48.0607004,242.839912 48.1338522,242.91319 C45.1346304,243.645959 42.7937743,245.184775 38.6972762,248.70207 Z M161.519066,240.71488 C163.786771,244.525283 163.713619,247.602916 160.8607,249.727949 C160.641245,249.288287 160.494942,248.775347 160.202335,248.042578 C160.202335,247.969301 160.202335,247.969301 160.129183,247.896024 C159.105058,245.111499 158.446692,243.939067 157.203113,242.620081 L156.178989,243.645959 C157.276264,244.671837 157.788327,245.770992 158.812451,248.335686 C158.812451,248.408963 158.812451,248.408963 158.885603,248.48224 C159.251362,249.43484 159.470817,250.021057 159.690273,250.533995 C157.788327,252.146088 156.105837,252.439197 154.350194,251.63315 C152.814008,250.973657 151.350973,249.581394 149.010117,246.943423 C148.863813,246.796869 148.717509,246.577038 148.571207,246.357208 C148.498055,246.28393 148.424903,246.210653 148.351751,246.064099 C148.205447,245.917545 148.205447,245.917545 148.132296,245.770992 C145.425681,242.620081 143.816342,240.934711 142.0607,239.98211 C146.157198,237.637247 149.814786,234.999275 153.106615,231.921642 C156.178989,234.193229 159.617121,237.563969 161.519066,240.71488 Z M162.543191,216.973138 C156.25214,229.650056 145.133074,238.589848 130.210117,244.012344 C117.481712,248.628794 102.412451,250.533995 86.8311282,249.94778 C59.9844358,248.995179 36.722179,239.615725 25.8225681,221.882696 C18.507393,210.085102 16.0933852,195.063321 16.7517509,174.399213 C16.9712062,168.756885 17.2638132,163.700774 17.9953308,154.467875 C18.8,144.062543 19.0194553,141.058187 19.2389105,136.36846 C19.385214,132.997719 19.385214,129.553701 19.3120623,125.889852 C19.1657588,119.441478 18.8,114.312089 17.8490273,102.807603 C16.5322958,87.565991 16.166537,80.8977861 16.3128405,72.5442104 C16.5322958,61.5526634 17.9953308,51.880102 21.0677042,42.7204795 C26.0420233,27.8452525 35.1859922,17.8063062 48.3533074,11.2846549 C59.3992218,5.86215842 72.7859922,3.07763317 91.000778,1.61209357 C108.045136,1.61209357 120.480934,3.15091015 131.234242,7.10786708 C144.108949,11.8708708 153.691829,20.2244465 160.275487,33.0479181 C164.518288,43.4532493 167.005447,54.6646272 168.322179,67.5613757 C169.346304,77.380491 169.565758,85.2944051 169.63891,103.247265 L169.63891,108.96287 C169.712062,117.829384 169.858366,124.057927 170.224125,130.286471 C170.370428,132.704611 170.44358,133.730489 170.809339,139.51937 C171.614008,151.976457 171.906615,158.424831 171.979767,165.899083 C172.12607,186.929576 169.492607,203.123789 162.543191,216.973138 Z M184.927626,136.734845 C184.854475,136.734845 184.781323,136.661568 184.708171,136.661568 C183.39144,136.221906 182.952529,135.928798 182.513619,135.415859 L181.343191,136.295183 C182.001557,137.174507 182.659922,137.540892 184.122958,138.053831 C183.83035,140.691802 182.586771,141.644403 180.46537,141.424572 C178.563424,141.278017 176.076264,140.105586 174.028016,138.713323 C173.442802,138.273662 172.857588,137.980554 172.272374,137.687446 C172.199222,137.687446 172.12607,137.614169 172.052918,137.614169 C171.760311,133.583935 171.760311,132.558057 171.614008,130.433025 C171.540856,129.114039 171.467704,127.795054 171.394553,126.476068 C175.491051,126.549345 179.514397,127.795054 182.586771,130.06664 C183.684047,130.872686 185.000778,132.411503 185.585992,133.730489 C186.317509,134.976197 186.171206,136.075352 184.927626,136.734845 Z" id="Shape" fill="#000000" fill-rule="nonzero"></path>
            <g id="Group" transform="translate(79.999071, 71.320287)">
                <path d="M22.0186771,5.27594258 C22.0918288,9.01306858 22.8233463,13.1165795 22.1649806,17.0735364 C21.140856,18.9787379 19.2389105,19.1985688 17.5564202,19.9313386 C15.2155642,19.5649537 13.2404669,18.0261372 12.2894942,15.8278277 C11.7042802,11.3579319 12.4357976,7.10786708 12.6552529,2.63797129 C12.6552529,2.49141733 15.4350194,2.71124826 17.922179,3.44401807 C20.0435798,4.10351089 22.0186771,5.20266559 22.0186771,5.27594258 Z" id="Path" fill="#FFFFFF"></path>
                <path d="M1.31673152,5.5690505 C-0.731517509,13.3364104 4.0233463,26.013328 11.8505837,15.6079968 C11.2653696,11.2113779 11.9237354,6.96131312 12.1431907,2.63797129 C12.2163424,2.27158638 1.38988327,5.05611163 1.31673152,5.5690505 Z" id="Path" fill="#FFFFFF"></path>
                <path d="M22.896498,8.71996064 C22.7501945,6.52165124 22.6770428,5.64232747 22.6770428,4.54317277 L22.6770428,4.03023391 L22.1649806,3.88367995 L12.9478599,1.02587772 L12.9478599,0.512938862 L11.9968872,0.732769802 L11.9237354,0.732769802 L11.9237354,0.806046779 L1.53618677,3.44401807 L1.17042802,3.51729505 L1.02412451,3.88367995 C-0.585214008,7.76735993 -0.219455253,13.6295183 1.82879377,17.2200903 C4.1696498,21.3236012 7.97354082,21.3968782 11.8505837,16.7071514 C12.9478599,18.8321839 14.996109,20.2977235 17.336965,20.6641084 L17.5564202,20.6641084 L17.7758755,20.5908314 C18.0684825,20.4442775 18.3610895,20.3710005 18.8731518,20.1511695 C18.9463035,20.1511695 18.9463035,20.1511695 19.0194553,20.0778926 C21.140856,19.3451228 22.0186771,18.7589069 22.7501945,17.3666443 L22.8233463,17.2933673 L22.8233463,17.1468134 C23.0428016,15.8278277 23.1159533,14.4355651 23.1159533,12.8967485 C23.1159533,11.7975938 23.0428016,10.7717161 22.896498,8.71996064 Z M11.1922179,6.00871238 C11.1190661,7.32769802 11.0459144,7.84063691 10.9727626,8.57340668 C10.8264592,11.2846549 10.8264592,13.3364104 11.0459144,15.3881658 C7.60778212,19.7847846 4.90116731,19.7847846 3.07237354,16.4873206 C1.31673152,13.4096874 0.95097276,8.20702176 2.26770428,4.76300371 L11.4848249,2.41814034 C11.4116731,3.37074109 11.3385214,4.32334183 11.1922179,6.00871238 Z M21.433463,16.8537054 C20.9214008,17.7330292 20.263035,18.1726911 18.507393,18.7589069 C18.4342412,18.7589069 18.4342412,18.7589069 18.3610895,18.8321839 C17.922179,18.9787379 17.629572,19.1252918 17.4101167,19.1985688 C15.4350194,18.8321839 13.7525291,17.5131983 12.9478599,15.6812737 C12.7284047,13.7027953 12.7284047,11.6510399 12.8747082,8.9397916 C12.9478599,8.20702176 12.9478599,7.69408294 13.0941634,6.37509728 C13.2404669,4.68972673 13.3136187,3.66384901 13.3136187,2.71124826 L21.2871595,5.12938862 C21.2871595,6.08198936 21.3603113,6.96131312 21.5066148,8.86651461 C21.6529183,10.8449931 21.72607,11.8708708 21.72607,13.0433025 C21.72607,14.4355651 21.6529183,15.6812737 21.433463,16.8537054 Z" id="Shape" fill="#000000" fill-rule="nonzero"></path>
            </g>
            <g id="Group" transform="translate(35.599201, 16.165932)">
                <path d="M1.68249027,28.5047453 C8.41245135,54.7379042 50.3284047,47.996422 48.7190661,21.6899861 C46.8171206,-9.81911533 -4.75486381,-3.73712599 1.68249027,28.5047453" id="Path" fill="#FFFFFF"></path>
                <path d="M49.4505837,21.6167091 C49.0116731,13.9959032 45.6466926,8.06046779 40.0871595,4.32334183 C35.1128405,0.952600739 28.5291829,-0.366384901 22.0186771,0.439661881 C15.5081712,1.31898564 9.5097276,4.25006485 5.55953308,8.86651461 C1.17042802,13.9959032 -0.512062257,20.7373854 1.02412451,28.5047453 L1.68249027,28.3581913 L1.02412451,28.5047453 C7.90038914,55.470674 51.0599222,48.9490227 49.4505837,21.6167091 Z M2.34085603,28.3581913 C0.877821012,20.9572164 2.48715953,14.655396 6.58365758,9.89239231 C10.3143969,5.5690505 15.9470817,2.71124826 22.1649806,1.90520149 C28.3828793,1.0991547 34.6007782,2.34486337 39.2824903,5.5690505 C44.4762646,9.08634556 47.6217899,14.5821191 48.0607004,21.8365401 C49.5968872,47.4102062 8.85136188,53.5654725 2.34085603,28.3581913 Z" id="Shape" fill="#000000" fill-rule="nonzero"></path>
                <ellipse id="Oval" fill="#000000" cx="13.2404669" cy="24.1814034" rx="7.09571984" ry="7.69408294"></ellipse>
                <ellipse id="Oval" fill="#FFFFFF" cx="16.459144" cy="25.940051" rx="1.68249027" ry="1.97847846"></ellipse>
            </g>
            <g id="Group" transform="translate(95.188064, 13.313120)">
                <path d="M0.877821012,26.4529899 C6.07159533,56.5698287 55.229572,48.5826378 48.1338522,18.245968 C41.7696498,-9.01306858 -0.877821012,-1.4655396 0.877821012,26.4529899" id="Path" fill="#FFFFFF"></path>
                <path d="M48.7922179,18.0994141 C42.2817121,-9.9656693 -1.60933852,-2.27158638 0.146303502,26.5262669 L0.146303502,26.5995438 C2.56031128,40.815278 15.2155642,48.069699 29.1875487,45.7248356 C35.5517509,44.6256809 41.2575875,41.5480477 44.9883269,37.004875 C49.0848249,31.9487634 50.5478599,25.4271121 48.7922179,18.0994141 Z M43.8910506,36.1255512 C40.3797665,40.3756161 35.0396887,43.3066953 28.9680934,44.332573 C15.7276265,46.5308824 3.8770428,39.7161233 1.53618677,26.3797129 C-0.0731517509,-0.732769802 41.3307393,-7.9871908 47.4754864,18.392522 C49.0848249,25.3538351 47.7680934,31.4358245 43.8910506,36.1255512 Z" id="Shape" fill="#000000" fill-rule="nonzero"></path>
                <ellipse id="Oval" fill="#000000" cx="12.9478599" cy="25.1340042" rx="6.94941634" ry="7.69408294"></ellipse>
                <ellipse id="Oval" fill="#FFFFFF" cx="16.166537" cy="26.8926517" rx="1.60933852" ry="1.97847846"></ellipse>
            </g>
            <g id="Group" transform="translate(73.097025, 51.826076)">
                <path d="M9.72918286,9.23289953 C3.95019455,9.74583834 -0.731517509,16.5605976 2.26770428,21.9830941 C6.21789883,29.1642381 15.0692607,21.3236012 20.555642,22.0563711 C26.9198443,22.202925 32.1136187,28.7978532 37.1610895,23.2288027 C42.7937743,17.0735364 34.7470817,11.064824 28.3828793,8.42685271 L9.72918286,9.23289953 Z" id="Path" fill="#F6D2A2"></path>
                <path d="M37.892607,14.1424572 C35.9175097,11.6510399 32.4793775,9.3794535 28.7486381,7.84063691 L28.6023346,7.76735993 L28.4560311,7.76735993 L9.72918286,8.50012969 C3.21867704,9.08634556 -1.46303502,16.6338745 1.68249027,22.349479 C2.92607004,24.5477884 4.60856031,25.646943 6.87626459,25.793497 C8.55875486,25.866774 10.3143969,25.5003891 13.0210117,24.5477884 C13.2404669,24.4745114 13.533074,24.4012344 13.8988327,24.2546804 C17.5564202,23.0089718 19.0194553,22.6425869 20.4824903,22.8624178 L20.555642,22.8624178 C22.3112841,22.8624178 23.7743191,23.3753567 26.5540856,24.4745114 C29.6264592,25.72022 30.5774319,26.0866049 32.1136187,26.2331589 C34.2350194,26.3797129 36.0638132,25.646943 37.7463035,23.8150186 C40.5992218,20.6641084 40.4529183,17.2933673 37.892607,14.1424572 Z M36.6490273,22.7891408 C35.259144,24.3279574 33.8692607,24.8408963 32.1867704,24.7676193 C30.8700389,24.6943423 29.9922179,24.3279574 27.0661478,23.1555257 C24.1400778,21.9098171 22.5307393,21.4701552 20.6287938,21.3968782 C18.8,21.1770472 17.2638132,21.5434322 13.3867704,22.8624178 C13.0210117,23.0089718 12.7284047,23.0822488 12.5089494,23.1555257 C7.16887159,24.9874503 4.60856031,24.8408963 2.85291829,21.6167091 C0.219455253,16.8537054 4.24280156,10.4053312 9.72918286,9.89239231 L28.2365758,9.15962255 C31.7478599,10.6251622 34.8933852,12.7501945 36.722179,15.021781 C38.9167315,17.6597522 38.9898833,20.2977235 36.6490273,22.7891408 Z" id="Shape" fill="#231F20" fill-rule="nonzero"></path>
                <g transform="translate(8.778210, 0.000000)" fill="#000000" id="Path">
                    <path d="M21.0677042,6.08198936 C18.8,-2.27158638 -0.219455253,-1.02587772 0.219455253,8.9397916 C1.17042802,16.3407666 23.2622568,14.3622881 21.0677042,6.08198936 Z"></path>
                </g>
            </g>
        </g>
    </g>
</svg>