<?xml version="1.0" encoding="UTF-8"?>
<svg width="223px" height="256px" viewBox="0 0 223 256" version="1.1" xmlns="http://www.w3.org/2000/svg" xmlns:xlink="http://www.w3.org/1999/xlink">
    <!-- Generator: Sketch 52 (66869) - http://www.bohemiancoding.com/sketch -->
    <title>cplusplus-original</title>
    <desc>Created with Sketch.</desc>
    <g id="Page-1" stroke="none" stroke-width="1" fill="none" fill-rule="evenodd">
        <g id="cplusplus-original">
            <path d="M217.631481,59.2516129 L117.900926,1.85806452 C116.249074,0.825806452 113.977778,0.412903226 111.5,0.412903226 C109.022222,0.412903226 106.750926,1.03225806 105.099074,1.85806452 L5.98796296,59.4580645 C2.47777778,61.5225806 1.42108547e-14,66.683871 1.42108547e-14,70.6064516 L1.42108547e-14,185.6 C1.42108547e-14,187.870968 0.412962963,190.554839 2.06481481,192.825806 L222.587037,64.8258065 C221.348148,62.3483871 219.489815,60.4903226 217.631481,59.2516129 Z" id="Path" fill="#D26383"></path>
            <path d="M1.44537037,192.619355 C2.47777778,194.270968 3.92314815,195.716129 5.36851852,196.541935 L104.892593,254.141935 C106.544444,255.174194 108.815741,255.587097 111.293519,255.587097 C113.771296,255.587097 116.042593,254.967742 117.694444,254.141935 L216.805556,196.541935 C220.315741,194.477419 222.793519,189.316129 222.793519,185.393548 L222.793519,70.4 C222.793519,68.5419355 222.587037,66.4774194 221.55463,64.6193548 L1.44537037,192.619355 Z" id="Path" fill="#9C033A"></path>
            <path d="M155.480556,152.980645 C146.808333,168.258065 130.289815,178.580645 111.5,178.580645 C83.625,178.580645 60.912037,155.870968 60.912037,128 C60.912037,100.129032 83.625,77.4193548 111.5,77.4193548 C130.289815,77.4193548 146.808333,87.7419355 155.480556,103.225806 L182.323148,87.7419355 C168.282407,63.1741935 141.852778,46.4516129 111.5,46.4516129 C66.487037,46.4516129 29.9398148,82.9935484 29.9398148,128 C29.9398148,173.006452 66.487037,209.548387 111.5,209.548387 C141.646296,209.548387 168.075926,193.032258 182.116667,168.670968 L155.480556,152.980645 Z" id="Path" fill="#FFFFFF"></path>
            <g id="Group" transform="translate(148.666667, 111.483871)" fill="#FFFFFF" fill-rule="nonzero">
                <path d="M0.206481481,11.9741935 L10.9435185,11.9741935 L10.9435185,1.03225806 L20.0287037,1.03225806 L20.0287037,11.9741935 L30.9722222,11.9741935 L30.9722222,21.0580645 L20.0287037,21.0580645 L20.0287037,31.7935484 L10.9435185,31.7935484 L10.9435185,21.0580645 L0.206481481,21.0580645 L0.206481481,11.9741935 Z M38.4055556,11.9741935 L49.1425926,11.9741935 L49.1425926,1.03225806 L58.2277778,1.03225806 L58.2277778,11.9741935 L69.1712963,11.9741935 L69.1712963,21.0580645 L58.2277778,21.0580645 L58.2277778,31.7935484 L49.1425926,31.7935484 L49.1425926,21.0580645 L38.4055556,21.0580645 L38.4055556,11.9741935 Z" id="Shape"></path>
            </g>
        </g>
    </g>
</svg>