<?xml version="1.0" encoding="UTF-8"?>
<svg width="255px" height="96px" viewBox="0 0 255 96" version="1.1" xmlns="http://www.w3.org/2000/svg" xmlns:xlink="http://www.w3.org/1999/xlink">
    <!-- Generator: Sketch 52 (66869) - http://www.bohemiancoding.com/sketch -->
    <title>go</title>
    <desc>Created with Sketch.</desc>
    <g id="Page-1" stroke="none" stroke-width="1" fill="none" fill-rule="evenodd">
        <g id="go" transform="translate(0.000000, -1.000000)" fill="#2DBCAF" fill-rule="nonzero">
            <path d="M20.0347826,29.9705128 C19.5400966,29.9705128 19.4164251,29.7217949 19.6637681,29.3487179 L22.2608696,25.9910256 C22.5082126,25.6179487 23.12657,25.3692308 23.621256,25.3692308 L67.7719807,25.3692308 C68.2666667,25.3692308 68.3903382,25.7423077 68.1429952,26.1153846 L66.0405797,29.3487179 C65.7932367,29.7217949 65.1748792,30.0948718 64.8038647,30.0948718 L20.0347826,29.9705128 Z M1.36038647,41.4115385 C0.865700483,41.4115385 0.742028986,41.1628205 0.989371981,40.7897436 L3.58647343,37.4320513 C3.83381643,37.0589744 4.45217391,36.8102564 4.9468599,36.8102564 L61.3410628,36.8102564 C61.8357488,36.8102564 62.0830918,37.1833333 61.9594203,37.5564103 L60.9700483,40.5410256 C60.8463768,41.0384615 60.3516908,41.2871795 59.8570048,41.2871795 L1.36038647,41.4115385 Z M31.2888889,52.8525641 C30.7942029,52.8525641 30.6705314,52.4794872 30.9178744,52.1064103 L32.6492754,48.9974359 C32.8966184,48.624359 33.3913043,48.2512821 33.8859903,48.2512821 L58.6202899,48.2512821 C59.1149758,48.2512821 59.3623188,48.624359 59.3623188,49.1217949 L59.1149758,52.1064103 C59.1149758,52.6038462 58.6202899,52.9769231 58.2492754,52.9769231 L31.2888889,52.8525641 Z M159.659903,27.7320513 C151.868599,29.7217949 146.550725,31.2141026 138.883092,33.2038462 C137.028019,33.7012821 136.904348,33.825641 135.296618,31.9602564 C133.441546,29.8461538 132.081159,28.4782051 129.484058,27.2346154 C121.692754,23.3794872 114.148792,24.4987179 107.099517,29.1 C98.6898551,34.5717949 94.3613527,42.6551282 94.4850242,52.7282051 C94.6086957,62.6769231 101.410628,70.8846154 111.180676,72.2525641 C119.590338,73.3717949 126.639614,70.3871795 132.204831,64.0448718 C133.317874,62.6769231 134.307246,61.1846154 135.543961,59.4435897 L111.675362,59.4435897 C109.078261,59.4435897 108.459903,57.8269231 109.325604,55.7128205 C110.933333,51.8576923 113.901449,45.3910256 115.63285,42.1576923 C116.003865,41.4115385 116.869565,40.1679487 118.724638,40.1679487 L163.741063,40.1679487 C163.49372,43.525641 163.49372,46.8833333 162.999034,50.2410256 C161.638647,59.1948718 158.299517,67.4025641 152.857971,74.6153846 C143.953623,86.4294872 132.328502,93.7666667 117.611594,95.7564103 C105.491787,97.3730769 94.2376812,95.0102564 84.3439614,87.5487179 C75.1922705,80.5846154 69.9980676,71.3820513 68.6376812,59.9410256 C67.0299517,46.3858974 70.9874396,34.1987179 79.1497585,23.5038462 C87.9304348,11.9384615 99.5555556,4.60128205 113.777778,1.98974359 C125.402899,-0.124358974 136.533333,1.24358974 146.550725,8.08333333 C153.105314,12.4358974 157.804831,18.4051282 160.896618,25.6179487 C161.638647,26.7371795 161.143961,27.3589744 159.659903,27.7320513 Z" id="Shape"></path>
            <path d="M200.595169,96.5025641 C189.341063,96.2538462 179.076329,93.0205128 170.419324,85.5589744 C163.122705,79.2166667 158.54686,71.1333333 157.062802,61.5576923 C154.836715,47.5051282 158.670531,35.0692308 167.080193,24.0012821 C176.108213,12.0628205 186.991304,5.84487179 201.708213,3.23333333 C214.322705,0.994871795 226.195169,2.23846154 236.954589,9.57564103 C246.724638,16.2910256 252.784541,25.3692308 254.392271,37.3076923 C256.494686,54.0961538 251.671498,67.775641 240.170048,79.4653846 C232.007729,87.7974359 221.990338,93.0205128 210.488889,95.3833333 C207.149758,96.0051282 203.810628,96.1294872 200.595169,96.5025641 Z M230.028986,46.2615385 C229.905314,44.6448718 229.905314,43.4012821 229.657971,42.1576923 C227.431884,29.8461538 216.177778,22.8820513 204.428986,25.6179487 C192.927536,28.2294872 185.507246,35.5666667 182.786473,47.2564103 C180.560386,56.9564103 185.259903,66.7807692 194.164251,70.7602564 C200.966184,73.7448718 207.768116,73.3717949 214.322705,70.0141026 C224.092754,64.9153846 229.410628,56.9564103 230.028986,46.2615385 Z" id="Shape"></path>
        </g>
    </g>
</svg>