<?xml version="1.0" encoding="UTF-8"?>
<svg width="228px" height="256px" viewBox="0 0 228 256" version="1.1" xmlns="http://www.w3.org/2000/svg" xmlns:xlink="http://www.w3.org/1999/xlink">
    <!-- Generator: Sketch 52 (66869) - http://www.bohemiancoding.com/sketch -->
    <title>c</title>
    <desc>Created with Sketch.</desc>
    <g id="Page-1" stroke="none" stroke-width="1" fill="none" fill-rule="evenodd">
        <g id="c">
            <path d="M227.988422,75.264 C227.986641,70.9591111 227.064844,67.1555556 225.201656,63.8915556 C223.371422,60.6808889 220.629188,57.9911111 216.952687,55.8631111 C186.599297,38.3786667 156.216516,20.9475556 125.873812,3.44533333 C117.693422,-1.272 109.761516,-1.10044444 101.641687,3.68533333 C89.5603594,10.8035556 29.0726719,45.424 11.0482031,55.8533333 C3.62573437,60.1466667 0.013359375,66.7164444 0.011578125,75.256 C0,110.418667 0.011578125,145.579556 0,180.743111 C0.00178125,184.952889 0.884390625,188.682667 2.66564062,191.898667 C4.49676563,195.205333 7.27640625,197.969778 11.0384062,200.145778 C29.0637656,210.575111 89.5594688,245.192889 101.638125,252.312889 C109.761516,257.101333 117.693422,257.272 125.876484,252.552889 C156.220078,235.049778 186.604641,217.619556 216.962484,200.135111 C220.724484,197.96 223.504125,195.193778 225.33525,191.889778 C227.113828,188.673778 227.998219,184.944 228,180.733333 C228,180.733333 228,110.427556 227.988422,75.264" id="Path" fill="#A9B9CB"></path>
            <path d="M125.668078,3.67466667 C117.501047,-1.03111111 109.5825,-0.859555556 101.476031,3.91377778 C89.4142969,11.0133333 29.0254687,45.544 11.0303906,55.9466667 C3.6195,60.2284444 0.013359375,66.7813333 0.011578125,75.2986667 C0,110.369778 0.011578125,145.44 0,180.512 C0.00178125,184.711111 0.882609375,188.431111 2.6611875,191.638222 C4.48964062,194.936889 7.26482812,197.694222 11.0205937,199.864 C15.1432969,202.247111 21.4934531,205.897778 28.9747031,210.192889 L195.603516,43.8888889 C172.288734,30.4897778 148.967719,17.1013333 125.668078,3.67466667" id="Path" fill="#7F8B99"></path>
            <path d="M137.562375,111.971556 L173.043984,112.221333 C173.043984,97.4666667 158.079703,61.3333333 115.177406,61.3333333 C87.8432344,61.3333333 51.0960469,78.6773333 51.0960469,128.542222 C51.0960469,178.406222 87.1191563,194.666667 115.177406,194.666667 C160.614422,194.666667 171.473813,163.287111 171.473813,145.553778 L137.623828,143.622222 C137.623828,143.622222 138.529594,164.133333 114.996609,164.133333 C93.2742656,164.133333 89.6494219,137.575111 89.6494219,128.542222 C89.6494219,114.811556 94.541625,92.7697778 114.996609,92.7697778 C135.452484,92.7697778 137.562375,111.971556 137.562375,111.971556" id="Path" fill="#FFFFFF"></path>
        </g>
    </g>
</svg>