<?xml version="1.0" encoding="UTF-8"?>
<svg width="256px" height="135px" viewBox="0 0 256 135" version="1.1" xmlns="http://www.w3.org/2000/svg" xmlns:xlink="http://www.w3.org/1999/xlink">
    <!-- Generator: Sketch 52 (66869) - http://www.bohemiancoding.com/sketch -->
    <title>php</title>
    <desc>Created with Sketch.</desc>
    <defs>
        <radialGradient cx="30.0202132%" cy="17.5837348%" fx="30.0202132%" fy="17.5837348%" r="124.884962%" gradientTransform="translate(0.300202,0.175837),scale(0.525781,1.000000),translate(-0.300202,-0.175837)" id="radialGradient-1">
            <stop stop-color="#FFFFFF" offset="0%"></stop>
            <stop stop-color="#4C6B97" offset="50%"></stop>
            <stop stop-color="#231F20" offset="100%"></stop>
        </radialGradient>
    </defs>
    <g id="Page-1" stroke="none" stroke-width="1" fill="none" fill-rule="evenodd">
        <g id="php">
            <ellipse id="Oval" fill="url(#radialGradient-1)" cx="128" cy="67.3" rx="128" ry="67.3"></ellipse>
            <ellipse id="Oval" fill="#6181B6" cx="128" cy="67.3" rx="123" ry="62.3"></ellipse>
            <g id="Group" transform="translate(36.000000, 17.000000)" fill="#FFFFFF" fill-rule="nonzero">
                <path d="M116.9,70.5 C116.9,70.5 123,39.1 123,39.1 C124.4,32 123.2,26.7 119.6,23.4 C116.1,20.2 110.1,18.6 101.3,18.6 L90.7,18.6 L93.7,3 C93.8,2.4 93.7,1.8 93.3,1.3 C92.9,0.8 92.4,0.6 91.8,0.6 L77.2,0.6 C76.2,0.6 75.4,1.3 75.2,2.2 L68.7,35.5 C68.1,31.7 66.7,28.5 64.3,25.9 C60,21 53.3,18.5 44.2,18.5 L16.1,18.5 C15.1,18.5 14.3,19.2 14.1,20.1 L1,87.7 C0.9,88.3 1,88.9 1.4,89.4 C1.8,89.9 2.3,90.1 2.9,90.1 L17.6,90.1 C18.6,90.1 19.4,89.4 19.6,88.5 L22.8,72.2 L33.7,72.2 C39.4,72.2 44.3,71.6 48,70.4 C51.9,69.1 55.4,67 58.5,64.1 C61,61.8 63.1,59.2 64.7,56.4 L62.1,69.9 C62,70.5 62.1,71.1 62.5,71.6 C62.9,72.1 63.4,72.3 64,72.3 L78.6,72.3 C79.6,72.3 80.4,71.6 80.6,70.7 L87.8,33.7 L97.8,33.7 C102.1,33.7 103.3,34.5 103.7,34.9 C104,35.2 104.6,36.4 103.9,40.1 L98.1,70 C98,70.6 98.1,71.2 98.5,71.7 C98.9,72.2 99.4,72.4 100,72.4 L115,72.4 C115.9,72.1 116.7,71.4 116.9,70.5 Z M49.3,44.5 C48.4,49.2 46.7,52.6 44.2,54.5 C41.7,56.4 37.6,57.4 32.2,57.4 L25.7,57.4 L30.4,33.2 L38.8,33.2 C45,33.2 47.5,34.5 48.5,35.6 C49.8,37.2 50.1,40.3 49.3,44.5 Z" id="Shape"></path>
                <path d="M179.3,25.9 C175,21 168.3,18.5 159.2,18.5 L130.9,18.5 C129.9,18.5 129.1,19.2 128.9,20.1 L115.8,87.6 C115.7,88.2 115.8,88.8 116.2,89.3 C116.6,89.8 117.1,90 117.7,90 L132.4,90 C133.4,90 134.2,89.3 134.4,88.4 L137.6,72.1 L148.5,72.1 C154.2,72.1 159.1,71.5 162.8,70.3 C166.7,69 170.2,66.9 173.3,64 C175.9,61.6 178.1,58.9 179.7,56 C181.3,53.1 182.5,49.9 183.2,46.4 C184.9,37.7 183.6,30.9 179.3,25.9 Z M164,44.5 C163.1,49.2 161.4,52.6 158.9,54.5 C156.4,56.4 152.3,57.4 146.9,57.4 L140.4,57.4 L145.1,33.2 L153.5,33.2 C159.7,33.2 162.2,34.5 163.2,35.6 C164.6,37.2 164.9,40.3 164,44.5 Z" id="Shape"></path>
            </g>
            <g id="Group" transform="translate(39.000000, 19.000000)" fill="#000004">
                <path d="M35.8,29.2 C41.4,29.2 45.1,30.2 47,32.3 C48.9,34.4 49.3,37.9 48.3,42.9 C47.3,48.1 45.3,51.9 42.4,54.1 C39.5,56.3 35.1,57.4 29.2,57.4 L20.3,57.4 L25.8,29.2 L35.8,29.2 Z M0,86 L14.7,86 L18.2,68.1 L30.8,68.1 C36.4,68.1 40.9,67.5 44.5,66.3 C48.1,65.1 51.3,63.2 54.3,60.4 C56.8,58.1 58.8,55.6 60.3,52.9 C61.8,50.2 62.9,47.2 63.5,43.9 C65.1,35.9 63.9,29.7 60,25.2 C56.1,20.7 49.9,18.5 41.4,18.5 L13.1,18.5 L0,86 Z" id="Shape" fill-rule="nonzero"></path>
                <path d="M74.3,0.6 L88.9,0.6 L85.4,18.5 L98.4,18.5 C106.6,18.5 112.2,19.9 115.3,22.8 C118.4,25.7 119.3,30.3 118.1,36.7 L112,68.1 L97.2,68.1 L103,38.2 C103.7,34.8 103.4,32.5 102.3,31.3 C101.2,30.1 98.7,29.4 95,29.4 L83.3,29.4 L75.8,68.1 L61.2,68.1 L74.3,0.6 Z" id="Path"></path>
                <path d="M150.5,29.2 C156.1,29.2 159.8,30.2 161.7,32.3 C163.6,34.4 164,37.9 163,42.9 C162,48.1 160,51.9 157.1,54.1 C154.2,56.3 149.8,57.4 143.9,57.4 L135,57.4 L140.5,29.2 L150.5,29.2 Z M114.7,86 L129.4,86 L132.9,68.1 L145.5,68.1 C151.1,68.1 155.6,67.5 159.2,66.3 C162.8,65.1 166,63.2 169,60.4 C171.5,58.1 173.5,55.6 175,52.9 C176.5,50.2 177.6,47.2 178.2,43.9 C179.8,35.9 178.6,29.7 174.7,25.2 C170.8,20.7 164.6,18.5 156.1,18.5 L127.8,18.5 L114.7,86 Z" id="Shape" fill-rule="nonzero"></path>
            </g>
        </g>
    </g>
</svg>